{"accessors":[{"name":"text_Text-Mesh_positions","componentType":5126,"count":2696,"min":[0.024000000208616257,-0.060116998851299286,-0.5559999942779541],"max":[2.7231171131134033,0.7423210144042969,0.5559999942779541],"type":"VEC3","bufferView":0,"byteOffset":0},{"name":"text_Text-Mesh_normals","componentType":5126,"count":2696,"min":[-1,-1,-1],"max":[1,1,1],"type":"VEC3","bufferView":0,"byteOffset":32352},{"name":"text_Text-Mesh_0_indices","componentType":5123,"count":8010,"min":[0],"max":[2695],"type":"SCALAR","bufferView":1,"byteOffset":0}],"asset":{"generator":"obj2gltf","version":"2.0"},"buffers":[{"name":"input","byteLength":80724,"uri":"data:application/octet-stream;base64,"}],"bufferViews":[{"name":"bufferView_0","buffer":0,"byteLength":64704,"byteOffset":0,"byteStride":12,"target":34962},{"name":"bufferView_1","buffer":0,"byteLength":16020,"byteOffset":64704,"target":34963}],"materials":[{"name":"None","pbrMetallicRoughness":{"baseColorFactor":[0.5,0.5,0.5,1],"metallicFactor":0,"roughnessFactor":1},"emissiveFactor":[0,0,0],"alphaMode":"OPAQUE","doubleSided":false}],"meshes":[{"name":"text_Text-Mesh","primitives":[{"attributes":{"POSITION":0,"NORMAL":1},"indices":2,"material":0,"mode":4}]}],"nodes":[{"name":"text_Text","mesh":0}],"scene":0,"scenes":[{"nodes":[0]}]}
